<svg width="316" height="47" viewBox="0 0 316 47" fill="none" xmlns="http://www.w3.org/2000/svg">
<path d="M30.225 8.27988C30.225 8.07489 30.225 7.8699 30.1552 7.73324C30.1552 7.52824 30.0854 7.39158 30.0854 7.18659C30.0854 7.11826 30.0156 7.04993 30.0156 6.9816C30.0156 6.91327 29.9459 6.84493 29.9459 6.7766C29.8761 6.63994 29.8761 6.50328 29.8063 6.36662C29.597 5.8883 29.3178 5.54665 29.1783 5.34165C29.1085 5.20499 29.0387 5.13666 28.9689 5.13666C28.8992 5 28.8992 5 28.8992 5C28.8992 5 28.8294 5.13666 28.7596 5.40999C28.6898 5.61498 28.5503 5.95663 28.3409 6.36662C28.2711 6.43495 28.2014 6.57161 28.2014 6.63994C28.2014 6.70827 28.1316 6.70827 28.1316 6.7766C28.1316 6.84493 28.0618 6.84493 27.992 6.91327C27.9222 6.9816 27.8525 7.11826 27.7827 7.18659C27.7129 7.25492 27.6431 7.39158 27.5035 7.45991C27.1546 7.8699 26.736 8.21155 26.2475 8.62154C25.759 9.03152 25.2008 9.37318 24.5728 9.78316C24.4332 9.85149 24.2239 9.98816 24.0843 10.0565C23.9447 10.1248 23.7354 10.2615 23.5958 10.3298C23.4563 10.3981 23.2469 10.5348 23.1074 10.6031C22.9678 10.6715 22.7585 10.7398 22.6189 10.8765L22.3398 11.0131C22.27 11.1498 22.1305 11.2181 22.0607 11.2864L21.9211 11.3548H21.8513C21.8513 11.3548 21.9211 11.2864 21.9211 11.3548L21.8513 11.4231C21.7816 11.4914 21.642 11.4914 21.5722 11.5598C21.1535 11.7648 20.7348 11.9697 20.3859 12.1747C19.5486 12.5847 18.7112 13.063 17.8041 13.5414C17.525 13.7463 17.176 13.883 16.8969 14.088C16.3387 14.4297 15.7107 14.8397 15.1524 15.2496C14.2453 15.8646 13.4079 16.5479 12.6403 17.3679C12.5008 17.5046 12.431 17.5729 12.2914 17.7095L12.1519 17.8462C12.0821 17.9145 12.0123 17.9829 12.0123 17.9829C11.9425 18.0512 11.8727 18.1879 11.803 18.2562L11.6634 18.3929L11.5936 18.4612L11.5238 18.5295C11.1749 18.9395 10.8958 19.4178 10.6167 19.8278C10.5469 19.9645 10.4771 20.0328 10.4074 20.1695C10.3376 20.3061 10.198 20.5111 10.1282 20.6478C10.0584 20.7844 9.98868 20.9894 9.91888 21.1261C9.70948 21.6044 9.56998 22.0144 9.43041 22.4244C9.15128 23.3127 9.01172 24.0643 9.01172 24.816C9.01172 25.4993 9.01172 26.1826 9.15128 26.6609C9.15128 26.7976 9.22107 26.9342 9.22107 27.0025C9.22107 27.1392 9.29085 27.2075 9.29085 27.3442C9.36063 27.5492 9.43041 27.6859 9.43041 27.8225C9.43041 27.8909 9.43041 27.8908 9.50018 27.9592C9.56998 28.1642 9.63978 28.2325 9.63978 28.2325C9.63978 28.2325 9.70948 28.1642 9.77928 28.0275C9.77928 27.9592 9.84908 27.9592 9.84908 27.8909C9.98868 27.6859 10.198 27.4809 10.4074 27.2075C10.4771 27.1392 10.4771 27.1392 10.5469 27.0709C10.6865 26.8659 10.826 26.7292 11.0354 26.5242C11.2447 26.3192 11.3843 26.1142 11.5936 25.9093C12.0123 25.4993 12.5008 25.0893 12.9892 24.611C13.4777 24.201 14.1057 23.791 14.664 23.381C14.8035 23.3127 14.9431 23.176 15.1524 23.1077C15.292 23.0394 15.5013 22.9027 15.6409 22.8344C15.7107 22.766 15.5711 22.9027 15.5711 22.9027H15.6409L15.7107 22.8344L15.8502 22.766C15.92 22.6977 16.0596 22.6294 16.1293 22.561C16.1991 22.4927 16.1991 22.4927 16.2689 22.4927L16.4085 22.4244C16.4782 22.356 16.548 22.356 16.6178 22.2877C17.3156 21.9461 18.0832 21.5361 18.9206 21.1261C19.7579 20.7161 20.5953 20.2378 21.4327 19.7595C22.3398 19.2812 23.1772 18.7345 24.0843 18.1195C24.1541 18.0512 24.2936 17.9829 24.3634 17.9145C24.7123 17.6412 25.0612 17.4362 25.3404 17.1629C25.4799 17.0946 25.5497 17.0262 25.6893 16.8896L25.759 16.8212C25.6893 16.8212 25.8288 16.7529 25.8288 16.7529L25.9684 16.6163C26.0382 16.5479 26.1777 16.4796 26.2475 16.3429C26.3173 16.2746 26.4568 16.1379 26.5266 16.0696C26.736 15.8646 26.9453 15.6596 27.1546 15.4546L27.2244 15.3863C27.364 15.1813 27.5733 15.0446 27.7129 14.8397C27.8524 14.6347 28.0618 14.4297 28.2014 14.2247C28.3409 14.0197 28.4805 13.8147 28.6898 13.6097C29.2481 12.7214 29.7365 11.8331 30.0156 10.9448C30.1552 9.91982 30.2948 9.03152 30.225 8.27988Z" fill="#3C474E"/>
<path d="M27.9222 20.6475C27.9222 20.4425 27.8524 20.3059 27.8524 20.1009C27.8524 20.0325 27.7827 19.9642 27.7827 19.8959C27.7827 19.8276 27.7129 19.7592 27.7129 19.6909C27.6431 19.5542 27.6431 19.4176 27.5733 19.2809C27.4338 18.9393 27.2244 18.6659 27.0849 18.4609L26.9453 18.5976C26.8755 18.6659 26.7359 18.7343 26.6662 18.8026C26.5266 18.9393 26.3173 19.0759 26.1079 19.2126C26.1079 19.2809 26.0381 19.2809 26.0381 19.3492C25.9684 19.4176 25.8986 19.5542 25.8986 19.6226C25.8986 19.6909 25.8288 19.6909 25.8288 19.7592C25.8288 19.8276 25.759 19.8276 25.6892 19.8959C25.6892 20.0325 25.5497 20.1009 25.5497 20.2375C25.4799 20.3059 25.4101 20.4425 25.2706 20.5109C24.9217 20.9208 24.503 21.2625 24.0145 21.6725C23.5261 22.0825 22.9678 22.4241 22.3398 22.8341C22.2002 22.9024 21.9909 23.0391 21.8513 23.1074C21.7118 23.1758 21.5024 23.3124 21.3629 23.3808C21.2233 23.4491 21.014 23.5858 20.8744 23.6541C20.7348 23.7224 20.5255 23.7907 20.3859 23.9274L20.1068 24.0641C19.9673 24.1324 19.8975 24.2007 19.7579 24.2007L19.6184 24.2691H19.5486C19.5486 24.2691 19.6184 24.2007 19.6184 24.2691L19.5486 24.3374C19.4788 24.4057 19.3392 24.4057 19.2694 24.4741C18.8508 24.679 18.4321 24.884 18.0832 25.089C17.2458 25.499 16.4085 25.9773 15.5013 26.4557C14.5942 26.934 13.687 27.4806 12.8497 28.1639C12.5705 28.3689 12.2914 28.5739 12.0123 28.7789C11.5238 29.1889 11.0354 29.5989 10.5469 30.0772C10.5469 30.1455 10.6167 30.2139 10.6167 30.2139C10.6167 30.2139 10.6167 30.2822 10.6865 30.2822C10.6865 30.2822 10.6865 30.3505 10.7562 30.3505L10.826 30.4188C10.8958 30.4872 10.8958 30.5555 10.8958 30.5555L10.9656 30.6922L11.2447 31.2388C11.3145 31.3755 11.3843 31.5121 11.454 31.5805V31.6488L11.5936 31.9905C11.8029 32.4004 11.9425 32.8104 12.0821 33.2887C12.2216 33.6987 12.2914 34.1087 12.3612 34.5187V34.587C12.431 34.997 12.5008 35.3387 12.5008 35.7487C12.5008 35.817 12.5008 35.9536 12.5008 36.022C12.5705 35.9536 12.6403 35.9536 12.7101 35.8853C12.8497 35.817 13.059 35.6803 13.1986 35.612C13.2683 35.5437 13.1288 35.6803 13.1288 35.6803H13.1986L13.2683 35.612L13.4079 35.5437C13.4777 35.4753 13.6172 35.407 13.687 35.3387C13.7568 35.2703 13.7568 35.2703 13.8266 35.2703L13.9661 35.202C14.0359 35.1337 14.1057 35.1337 14.1755 35.0653C14.8733 34.7237 15.6409 34.3137 16.4782 33.9037C17.3156 33.4937 18.153 33.0154 18.9903 32.5371C19.8975 32.0588 20.7348 31.5121 21.642 30.8972C22.0607 30.6238 22.5491 30.2822 22.9678 29.9405C23.1074 29.8722 23.1772 29.8039 23.3167 29.6672L23.3865 29.5989C23.3167 29.5989 23.4563 29.5305 23.4563 29.5305L23.5958 29.3939C23.6656 29.3255 23.8052 29.2572 23.875 29.1206C23.9447 29.0522 24.0843 28.9156 24.1541 28.8472C24.3634 28.6422 24.5728 28.4372 24.7821 28.2323C24.9914 28.0273 25.131 27.8223 25.3403 27.6173C25.4799 27.4123 25.6892 27.2073 25.8288 27.0023C25.9684 26.7973 26.1079 26.5923 26.3173 26.3873C26.8755 25.499 27.364 24.6107 27.6431 23.7224C27.9222 22.8341 28.0618 21.9458 27.992 21.1942C27.9222 21.0575 27.9222 20.8525 27.9222 20.6475Z" fill="#3C474E"/>
<path d="M10.0581 35.0652C9.98827 34.7236 9.91848 34.3819 9.77888 34.0403C9.63938 33.6986 9.56958 33.357 9.36024 32.947L9.22068 32.6737C9.1509 32.6053 9.08111 32.4687 9.08111 32.332C9.08111 32.332 9.08111 32.332 9.08111 32.2637C9.01133 32.127 8.94155 31.9904 8.87177 31.8537V31.7854V31.717C8.87177 31.717 8.7322 31.5804 8.80198 31.6487L8.73221 31.512C8.66243 31.4437 8.66242 31.307 8.59264 31.2387C8.52286 31.0337 8.38331 30.8971 8.31353 30.6921C8.17397 30.3504 7.96462 29.9404 7.82506 29.5988V29.5304C7.54594 28.7105 7.26682 27.8222 7.12726 27.0022C6.98769 26.1139 6.91791 25.2256 6.91791 24.4056C6.91791 23.5857 7.05747 22.7657 7.19704 21.9457C7.3366 21.3991 7.54595 20.8524 7.75529 20.3058C7.96463 19.8958 8.17396 19.4858 8.3833 19.0758C8.66242 18.5975 9.01134 18.1192 9.36024 17.7092C9.84868 17.0942 10.3372 16.5476 10.8954 16.0693C11.035 15.9326 11.1745 15.8643 11.2443 15.7276C11.3839 15.5909 11.4537 15.5226 11.5932 15.3859C11.8026 15.181 12.0817 14.976 12.291 14.8393C13.1284 14.156 13.6866 13.746 13.6866 13.746C13.6866 13.746 13.6169 13.746 13.4075 13.6777C13.3377 13.6777 13.268 13.6777 13.1982 13.6777C12.9191 13.6094 12.4306 13.6094 11.8724 13.541C11.5932 13.541 11.2443 13.541 10.8954 13.541C10.5465 13.541 10.1976 13.6094 9.77888 13.6777C8.94156 13.8143 8.03441 14.0193 7.05748 14.4977C6.08056 14.9076 5.03385 15.5226 4.12671 16.3426C3.14978 17.1626 2.31241 18.2558 1.6146 19.4858C0.916805 20.7158 0.428343 22.1507 0.219001 23.5857C-0.06012 25.0206 -0.06012 26.5239 0.149221 27.9588C0.358562 29.3938 0.777245 30.8287 1.33548 32.127C1.6146 32.8103 1.96351 33.4253 2.38219 34.0403C2.31241 34.3819 2.52176 34.6553 2.7311 34.9286C2.87066 35.0652 2.94043 35.2019 3.07999 35.3386L3.21955 35.5436L3.28934 35.6119C3.28934 35.6802 3.21955 35.5436 3.21955 35.5436L3.28934 35.6119L3.42889 35.7486C3.42889 35.7486 3.42889 35.7486 3.49867 35.8169L3.56847 35.8852C3.70803 36.0219 3.77781 36.1585 3.84759 36.2952C3.91737 36.4319 4.05693 36.5685 4.12671 36.7052C4.12671 36.7735 4.19649 36.7735 4.19649 36.8419C4.26627 36.9785 4.33605 37.1152 4.40583 37.1835C4.54539 37.5252 4.75473 37.8668 4.89429 38.2768C4.96407 38.4818 5.03384 38.6185 5.10362 38.8234C5.10362 38.8918 5.17341 39.0284 5.17341 39.0968L5.31297 39.3701V39.4384C5.31297 39.4384 5.31297 39.5068 5.31297 39.3701V39.4384C5.52231 39.9167 5.66187 40.5317 5.66187 41.0784C5.66187 41.3517 5.66187 41.625 5.59209 41.8983C5.52231 42.1717 5.45253 42.3767 5.38275 42.5816C5.31297 42.65 5.31297 42.65 5.31297 42.7183C5.10362 43.06 4.89429 43.3333 4.68495 43.5383C4.47561 43.7433 4.33604 43.8116 4.33604 43.8116C4.33604 43.8116 4.40583 43.8116 4.47561 43.8799C4.54539 43.8799 4.61516 43.9483 4.8245 43.9483C5.10362 44.0166 5.45254 44.0166 5.941 43.9483C6.08056 43.9483 6.22011 43.8799 6.35967 43.8799C6.70857 43.8116 7.05747 43.6066 7.40638 43.4016C7.75528 43.1966 8.10418 42.855 8.45308 42.5133C9.08111 41.7617 9.70917 40.805 9.98827 39.5068V39.4384C9.98827 39.3701 9.98827 39.4384 9.98827 39.3701V39.3018L10.0581 39.0968C10.0581 38.9601 10.1278 38.8234 10.1278 38.6868C10.1976 38.4135 10.1976 38.1401 10.1976 37.8668C10.2674 37.3202 10.2674 36.7052 10.1976 36.0902C10.1278 35.7486 10.0581 35.4069 10.0581 35.0652Z" fill="#BB976D"/>
<path d="M43.1152 10.4062V36H37.8418V10.4062H43.1152ZM53.3105 21.3398V25.4531H41.6738V21.3398H53.3105ZM54.541 10.4062V14.5371H41.6738V10.4062H54.541ZM62.627 9V36H57.5469V9H62.627ZM77.0762 31.7109V23.2383C77.0762 22.6289 76.9766 22.1074 76.7773 21.6738C76.5781 21.2285 76.2676 20.8828 75.8457 20.6367C75.4355 20.3906 74.9023 20.2676 74.2461 20.2676C73.6836 20.2676 73.1973 20.3672 72.7871 20.5664C72.377 20.7539 72.0605 21.0293 71.8379 21.3926C71.6152 21.7441 71.5039 22.1602 71.5039 22.6406H66.4414C66.4414 21.832 66.6289 21.0645 67.0039 20.3379C67.3789 19.6113 67.9238 18.9727 68.6387 18.4219C69.3535 17.8594 70.2031 17.4199 71.1875 17.1035C72.1836 16.7871 73.2969 16.6289 74.5273 16.6289C76.0039 16.6289 77.3164 16.875 78.4648 17.3672C79.6133 17.8594 80.5156 18.5977 81.1719 19.582C81.8398 20.5664 82.1738 21.7969 82.1738 23.2734V31.4121C82.1738 32.4551 82.2383 33.3105 82.3672 33.9785C82.4961 34.6348 82.6836 35.209 82.9297 35.7012V36H77.8145C77.5684 35.4844 77.3809 34.8398 77.252 34.0664C77.1348 33.2812 77.0762 32.4961 77.0762 31.7109ZM77.7441 24.416L77.7793 27.2812H74.9492C74.2812 27.2812 73.7012 27.3574 73.209 27.5098C72.7168 27.6621 72.3125 27.8789 71.9961 28.1602C71.6797 28.4297 71.4453 28.7461 71.293 29.1094C71.1523 29.4727 71.082 29.8711 71.082 30.3047C71.082 30.7383 71.1816 31.1309 71.3809 31.4824C71.5801 31.8223 71.8672 32.0918 72.2422 32.291C72.6172 32.4785 73.0566 32.5723 73.5605 32.5723C74.3223 32.5723 74.9844 32.4199 75.5469 32.1152C76.1094 31.8105 76.543 31.4355 76.8477 30.9902C77.1641 30.5449 77.3281 30.123 77.3398 29.7246L78.6758 31.8691C78.4883 32.3496 78.2305 32.8477 77.9023 33.3633C77.5859 33.8789 77.1816 34.3652 76.6895 34.8223C76.1973 35.2676 75.6055 35.6367 74.9141 35.9297C74.2227 36.2109 73.4023 36.3516 72.4531 36.3516C71.2461 36.3516 70.1504 36.1113 69.166 35.6309C68.1934 35.1387 67.4199 34.4648 66.8457 33.6094C66.2832 32.7422 66.002 31.7578 66.002 30.6562C66.002 29.6602 66.1895 28.7754 66.5645 28.002C66.9395 27.2285 67.4902 26.5781 68.2168 26.0508C68.9551 25.5117 69.875 25.1074 70.9766 24.8379C72.0781 24.5566 73.3555 24.416 74.8086 24.416H77.7441ZM91.1387 20.918V36H86.0586V16.9805H90.8223L91.1387 20.918ZM90.4355 25.8223H89.0293C89.0293 24.498 89.1875 23.2793 89.5039 22.166C89.832 21.041 90.3066 20.0684 90.9277 19.248C91.5605 18.416 92.3398 17.7715 93.2656 17.3145C94.1914 16.8574 95.2637 16.6289 96.4824 16.6289C97.3262 16.6289 98.0996 16.7578 98.8027 17.0156C99.5059 17.2617 100.109 17.6543 100.613 18.1934C101.129 18.7207 101.527 19.4121 101.809 20.2676C102.09 21.1113 102.23 22.125 102.23 23.3086V36H97.168V23.8711C97.168 23.0039 97.0508 22.3359 96.8164 21.8672C96.582 21.3984 96.248 21.0703 95.8145 20.8828C95.3926 20.6953 94.8828 20.6016 94.2852 20.6016C93.6289 20.6016 93.0547 20.7363 92.5625 21.0059C92.082 21.2754 91.6836 21.6504 91.3672 22.1309C91.0508 22.5996 90.8164 23.1504 90.6641 23.7832C90.5117 24.416 90.4355 25.0957 90.4355 25.8223ZM101.756 25.2422L99.9453 25.4707C99.9453 24.2285 100.098 23.0742 100.402 22.0078C100.719 20.9414 101.182 20.0039 101.791 19.1953C102.412 18.3867 103.18 17.7598 104.094 17.3145C105.008 16.8574 106.062 16.6289 107.258 16.6289C108.172 16.6289 109.004 16.7637 109.754 17.0332C110.504 17.291 111.143 17.707 111.67 18.2812C112.209 18.8438 112.619 19.582 112.9 20.4961C113.193 21.4102 113.34 22.5293 113.34 23.8535V36H108.26V23.8535C108.26 22.9746 108.143 22.3066 107.908 21.8496C107.686 21.3809 107.357 21.0586 106.924 20.8828C106.502 20.6953 105.998 20.6016 105.412 20.6016C104.803 20.6016 104.27 20.7246 103.812 20.9707C103.355 21.2051 102.975 21.5332 102.67 21.9551C102.365 22.377 102.137 22.8691 101.984 23.4316C101.832 23.9824 101.756 24.5859 101.756 25.2422ZM122.604 16.9805V36H117.523V16.9805H122.604ZM117.207 12.0234C117.207 11.2852 117.465 10.6758 117.98 10.1953C118.496 9.71484 119.188 9.47461 120.055 9.47461C120.91 9.47461 121.596 9.71484 122.111 10.1953C122.639 10.6758 122.902 11.2852 122.902 12.0234C122.902 12.7617 122.639 13.3711 122.111 13.8516C121.596 14.332 120.91 14.5723 120.055 14.5723C119.188 14.5723 118.496 14.332 117.98 13.8516C117.465 13.3711 117.207 12.7617 117.207 12.0234ZM131.744 21.041V36H126.682V16.9805H131.428L131.744 21.041ZM131.006 25.8223H129.635C129.635 24.416 129.816 23.1504 130.18 22.0254C130.543 20.8887 131.053 19.9219 131.709 19.125C132.365 18.3164 133.145 17.7012 134.047 17.2793C134.961 16.8457 135.98 16.6289 137.105 16.6289C137.996 16.6289 138.811 16.7578 139.549 17.0156C140.287 17.2734 140.92 17.6836 141.447 18.2461C141.986 18.8086 142.396 19.5527 142.678 20.4785C142.971 21.4043 143.117 22.5352 143.117 23.8711V36H138.02V23.8535C138.02 23.0098 137.902 22.3535 137.668 21.8848C137.434 21.416 137.088 21.0879 136.631 20.9004C136.186 20.7012 135.635 20.6016 134.979 20.6016C134.299 20.6016 133.707 20.7363 133.203 21.0059C132.711 21.2754 132.301 21.6504 131.973 22.1309C131.656 22.5996 131.416 23.1504 131.252 23.7832C131.088 24.416 131.006 25.0957 131.006 25.8223ZM159.008 16.9805H163.596V35.3672C163.596 37.1016 163.209 38.5723 162.436 39.7793C161.674 40.998 160.607 41.918 159.236 42.5391C157.865 43.1719 156.271 43.4883 154.455 43.4883C153.658 43.4883 152.814 43.3828 151.924 43.1719C151.045 42.9609 150.201 42.6328 149.393 42.1875C148.596 41.7422 147.928 41.1797 147.389 40.5L149.621 37.5117C150.207 38.1914 150.887 38.7188 151.66 39.0938C152.434 39.4805 153.289 39.6738 154.227 39.6738C155.141 39.6738 155.914 39.5039 156.547 39.1641C157.18 38.8359 157.666 38.3496 158.006 37.7051C158.346 37.0723 158.516 36.3047 158.516 35.4023V21.375L159.008 16.9805ZM146.211 26.7188V26.3496C146.211 24.8965 146.387 23.5781 146.738 22.3945C147.102 21.1992 147.611 20.1738 148.268 19.3184C148.936 18.4629 149.744 17.8008 150.693 17.332C151.643 16.8633 152.715 16.6289 153.91 16.6289C155.176 16.6289 156.236 16.8633 157.092 17.332C157.947 17.8008 158.65 18.4688 159.201 19.3359C159.752 20.1914 160.18 21.2051 160.484 22.377C160.801 23.5371 161.047 24.8086 161.223 26.1914V27C161.047 28.3242 160.783 29.5547 160.432 30.6914C160.08 31.8281 159.617 32.8242 159.043 33.6797C158.469 34.5234 157.754 35.1797 156.898 35.6484C156.055 36.1172 155.047 36.3516 153.875 36.3516C152.703 36.3516 151.643 36.1113 150.693 35.6309C149.756 35.1504 148.953 34.4766 148.285 33.6094C147.617 32.7422 147.102 31.7227 146.738 30.5508C146.387 29.3789 146.211 28.1016 146.211 26.7188ZM151.273 26.3496V26.7188C151.273 27.5039 151.35 28.2363 151.502 28.916C151.654 29.5957 151.889 30.1992 152.205 30.7266C152.533 31.2422 152.938 31.6465 153.418 31.9395C153.91 32.2207 154.49 32.3613 155.158 32.3613C156.084 32.3613 156.84 32.168 157.426 31.7812C158.012 31.3828 158.451 30.8379 158.744 30.1465C159.037 29.4551 159.207 28.6582 159.254 27.7559V25.4531C159.23 24.7148 159.131 24.0527 158.955 23.4668C158.779 22.8691 158.533 22.3594 158.217 21.9375C157.9 21.5156 157.49 21.1875 156.986 20.9531C156.482 20.7188 155.885 20.6016 155.193 20.6016C154.525 20.6016 153.945 20.7539 153.453 21.0586C152.973 21.3516 152.568 21.7559 152.24 22.2715C151.924 22.7871 151.684 23.3965 151.52 24.0996C151.355 24.791 151.273 25.541 151.273 26.3496ZM166.725 26.6836V26.3145C166.725 24.9199 166.924 23.6367 167.322 22.4648C167.721 21.2812 168.301 20.2559 169.062 19.3887C169.824 18.5215 170.762 17.8477 171.875 17.3672C172.988 16.875 174.266 16.6289 175.707 16.6289C177.148 16.6289 178.432 16.875 179.557 17.3672C180.682 17.8477 181.625 18.5215 182.387 19.3887C183.16 20.2559 183.746 21.2812 184.145 22.4648C184.543 23.6367 184.742 24.9199 184.742 26.3145V26.6836C184.742 28.0664 184.543 29.3496 184.145 30.5332C183.746 31.7051 183.16 32.7305 182.387 33.6094C181.625 34.4766 180.688 35.1504 179.574 35.6309C178.461 36.1113 177.184 36.3516 175.742 36.3516C174.301 36.3516 173.018 36.1113 171.893 35.6309C170.779 35.1504 169.836 34.4766 169.062 33.6094C168.301 32.7305 167.721 31.7051 167.322 30.5332C166.924 29.3496 166.725 28.0664 166.725 26.6836ZM171.787 26.3145V26.6836C171.787 27.4805 171.857 28.2246 171.998 28.916C172.139 29.6074 172.361 30.2168 172.666 30.7441C172.982 31.2598 173.393 31.6641 173.896 31.957C174.4 32.25 175.016 32.3965 175.742 32.3965C176.445 32.3965 177.049 32.25 177.553 31.957C178.057 31.6641 178.461 31.2598 178.766 30.7441C179.07 30.2168 179.293 29.6074 179.434 28.916C179.586 28.2246 179.662 27.4805 179.662 26.6836V26.3145C179.662 25.541 179.586 24.8145 179.434 24.1348C179.293 23.4434 179.064 22.834 178.748 22.3066C178.443 21.7676 178.039 21.3457 177.535 21.041C177.031 20.7363 176.422 20.584 175.707 20.584C174.992 20.584 174.383 20.7363 173.879 21.041C173.387 21.3457 172.982 21.7676 172.666 22.3066C172.361 22.834 172.139 23.4434 171.998 24.1348C171.857 24.8145 171.787 25.541 171.787 26.3145ZM193.285 31.0781L197.24 16.9805H200.457L199.42 22.5176L195.465 36H192.775L193.285 31.0781ZM191.281 16.9805L194.111 31.0605L194.375 36H191.211L186.395 16.9805H191.281ZM204.078 30.832L206.838 16.9805H211.742L206.926 36H203.779L204.078 30.832ZM200.896 16.9805L204.834 30.9727L205.379 36H202.672L198.717 22.5352L197.715 16.9805H200.896ZM213.482 26.6836V26.3145C213.482 24.9199 213.682 23.6367 214.08 22.4648C214.479 21.2812 215.059 20.2559 215.82 19.3887C216.582 18.5215 217.52 17.8477 218.633 17.3672C219.746 16.875 221.023 16.6289 222.465 16.6289C223.906 16.6289 225.189 16.875 226.314 17.3672C227.439 17.8477 228.383 18.5215 229.145 19.3887C229.918 20.2559 230.504 21.2812 230.902 22.4648C231.301 23.6367 231.5 24.9199 231.5 26.3145V26.6836C231.5 28.0664 231.301 29.3496 230.902 30.5332C230.504 31.7051 229.918 32.7305 229.145 33.6094C228.383 34.4766 227.445 35.1504 226.332 35.6309C225.219 36.1113 223.941 36.3516 222.5 36.3516C221.059 36.3516 219.775 36.1113 218.65 35.6309C217.537 35.1504 216.594 34.4766 215.82 33.6094C215.059 32.7305 214.479 31.7051 214.08 30.5332C213.682 29.3496 213.482 28.0664 213.482 26.6836ZM218.545 26.3145V26.6836C218.545 27.4805 218.615 28.2246 218.756 28.916C218.896 29.6074 219.119 30.2168 219.424 30.7441C219.74 31.2598 220.15 31.6641 220.654 31.957C221.158 32.25 221.773 32.3965 222.5 32.3965C223.203 32.3965 223.807 32.25 224.311 31.957C224.814 31.6641 225.219 31.2598 225.523 30.7441C225.828 30.2168 226.051 29.6074 226.191 28.916C226.344 28.2246 226.42 27.4805 226.42 26.6836V26.3145C226.42 25.541 226.344 24.8145 226.191 24.1348C226.051 23.4434 225.822 22.834 225.506 22.3066C225.201 21.7676 224.797 21.3457 224.293 21.041C223.789 20.7363 223.18 20.584 222.465 20.584C221.75 20.584 221.141 20.7363 220.637 21.041C220.145 21.3457 219.74 21.7676 219.424 22.3066C219.119 22.834 218.896 23.4434 218.756 24.1348C218.615 24.8145 218.545 25.541 218.545 26.3145ZM239.568 21.041V36H234.506V16.9805H239.252L239.568 21.041ZM238.83 25.8223H237.459C237.459 24.416 237.641 23.1504 238.004 22.0254C238.367 20.8887 238.877 19.9219 239.533 19.125C240.189 18.3164 240.969 17.7012 241.871 17.2793C242.785 16.8457 243.805 16.6289 244.93 16.6289C245.82 16.6289 246.635 16.7578 247.373 17.0156C248.111 17.2734 248.744 17.6836 249.271 18.2461C249.811 18.8086 250.221 19.5527 250.502 20.4785C250.795 21.4043 250.941 22.5352 250.941 23.8711V36H245.844V23.8535C245.844 23.0098 245.727 22.3535 245.492 21.8848C245.258 21.416 244.912 21.0879 244.455 20.9004C244.01 20.7012 243.459 20.6016 242.803 20.6016C242.123 20.6016 241.531 20.7363 241.027 21.0059C240.535 21.2754 240.125 21.6504 239.797 22.1309C239.48 22.5996 239.24 23.1504 239.076 23.7832C238.912 24.416 238.83 25.0957 238.83 25.8223ZM263.545 36.3516C262.068 36.3516 260.744 36.1172 259.572 35.6484C258.4 35.168 257.404 34.5059 256.584 33.6621C255.775 32.8184 255.154 31.8398 254.721 30.7266C254.287 29.6016 254.07 28.4062 254.07 27.1406V26.4375C254.07 24.9961 254.275 23.6777 254.686 22.4824C255.096 21.2871 255.682 20.25 256.443 19.3711C257.217 18.4922 258.154 17.8184 259.256 17.3496C260.357 16.8691 261.6 16.6289 262.982 16.6289C264.33 16.6289 265.525 16.8516 266.568 17.2969C267.611 17.7422 268.484 18.375 269.188 19.1953C269.902 20.0156 270.441 21 270.805 22.1484C271.168 23.2852 271.35 24.5508 271.35 25.9453V28.0547H256.232V24.6797H266.375V24.293C266.375 23.5898 266.246 22.9629 265.988 22.4121C265.742 21.8496 265.367 21.4043 264.863 21.0762C264.359 20.748 263.715 20.584 262.93 20.584C262.262 20.584 261.688 20.7305 261.207 21.0234C260.727 21.3164 260.334 21.7266 260.029 22.2539C259.736 22.7812 259.514 23.4023 259.361 24.1172C259.221 24.8203 259.15 25.5938 259.15 26.4375V27.1406C259.15 27.9023 259.256 28.6055 259.467 29.25C259.689 29.8945 260 30.4512 260.398 30.9199C260.809 31.3887 261.301 31.752 261.875 32.0098C262.461 32.2676 263.123 32.3965 263.861 32.3965C264.775 32.3965 265.625 32.2207 266.41 31.8691C267.207 31.5059 267.893 30.9609 268.467 30.2344L270.928 32.9062C270.529 33.4805 269.984 34.0312 269.293 34.5586C268.613 35.0859 267.793 35.5195 266.832 35.8594C265.871 36.1875 264.775 36.3516 263.545 36.3516ZM279.189 21.041V36H274.127V16.9805H278.873L279.189 21.041ZM278.451 25.8223H277.08C277.08 24.416 277.262 23.1504 277.625 22.0254C277.988 20.8887 278.498 19.9219 279.154 19.125C279.811 18.3164 280.59 17.7012 281.492 17.2793C282.406 16.8457 283.426 16.6289 284.551 16.6289C285.441 16.6289 286.256 16.7578 286.994 17.0156C287.732 17.2734 288.365 17.6836 288.893 18.2461C289.432 18.8086 289.842 19.5527 290.123 20.4785C290.416 21.4043 290.562 22.5352 290.562 23.8711V36H285.465V23.8535C285.465 23.0098 285.348 22.3535 285.113 21.8848C284.879 21.416 284.533 21.0879 284.076 20.9004C283.631 20.7012 283.08 20.6016 282.424 20.6016C281.744 20.6016 281.152 20.7363 280.648 21.0059C280.156 21.2754 279.746 21.6504 279.418 22.1309C279.102 22.5996 278.861 23.1504 278.697 23.7832C278.533 24.416 278.451 25.0957 278.451 25.8223Z" fill="#3C474E"/>
<path d="M120 15C121.657 15 123 13.6568 123 12C123 10.3431 121.657 9 120 9C118.343 9 117 10.3431 117 12C117 13.6568 118.343 15 120 15Z" fill="#BB976D"/>
</svg>
